<svg aria-hidden="true" style="position:absolute;width:0;height:0;overflow:hidden" xmlns="http://www.w3.org/2000/svg">
  <defs>
    <symbol id="icon-head-email" viewBox="0 0 32 32">
      <path d="M29 4H3C1.346 4 0 5.346 0 7v18c0 1.654 1.346 3 3 3h26c1.654 0 3-1.346 3-3V7c0-1.654-1.346-3-3-3zm0 2c.136 0 .265.028.383.077L16 17.676 2.617 6.077A.9956.9956 0 0 1 3 6h26zm0 20H3c-.552 0-1-.448-1-1V8.19l13.345 11.565c.188.163.422.244.655.244s.467-.081.655-.244L30 8.19V25c0 .552-.448 1-1 1z"/>
    </symbol>
    <symbol id="icon-head-smart" viewBox="0 0 32 32">
      <path d="M23 0H9C7.346 0 6 1.346 6 3v26c0 1.654 1.346 3 3 3h14c1.654 0 3-1.346 3-3V3c0-1.654-1.346-3-3-3zM9 2h14c.552 0 1 .448 1 1v21H8V3c0-.552.448-1 1-1zm14 28H9c-.552 0-1-.448-1-1v-3h16v3c0 .552-.448 1-1 1z"/>
      <path d="M10.707 27.478c.391.365.391.956 0 1.321s-1.024.365-1.414 0c-.391-.365-.391-.956 0-1.321s1.024-.365 1.414 0z"/>
    </symbol>
    <symbol id="icon-instagram-wg" viewBox="0 0 32 32">
      <path d="M31.969 9.408c-.075-1.7-.35-2.869-.744-3.882-.406-1.075-1.032-2.038-1.851-2.838A7.8671 7.8671 0 0 0 26.542.844C25.523.45 24.36.175 22.66.1 20.947.019 20.403 0 16.059 0s-4.888.019-6.595.094c-1.7.075-2.869.35-3.882.744-1.075.406-2.038 1.031-2.838 1.85C1.931 3.488 1.3 4.457.9 5.52.506 6.539.231 7.702.156 9.402c-.081 1.713-.1 2.257-.1 6.601s.019 4.888.094 6.595c.075 1.7.35 2.869.744 3.882.406 1.075 1.038 2.038 1.85 2.838.8.813 1.769 1.444 2.832 1.844 1.019.394 2.182.669 3.882.744 1.706.075 2.25.094 6.595.094s4.888-.019 6.595-.094c1.7-.075 2.869-.35 3.882-.744a8.1843 8.1843 0 0 0 4.682-4.682c.394-1.019.669-2.182.744-3.882.075-1.707.094-2.251.094-6.595s-.006-4.888-.081-6.595zm-2.882 13.065c-.069 1.563-.331 2.407-.55 2.969a5.3097 5.3097 0 0 1-3.038 3.038c-.563.219-1.413.481-2.969.55-1.688.075-2.194.094-6.464.094s-4.782-.019-6.464-.094c-1.563-.069-2.407-.331-2.969-.55-.694-.256-1.325-.663-1.838-1.194-.531-.519-.938-1.144-1.194-1.838-.219-.563-.481-1.413-.55-2.969-.075-1.688-.094-2.194-.094-6.464s.019-4.782.094-6.464c.069-1.563.331-2.407.55-2.969.256-.694.663-1.325 1.2-1.838.519-.531 1.144-.938 1.838-1.194.563-.219 1.413-.481 2.969-.55 1.688-.075 2.194-.094 6.464-.094 4.276 0 4.782.019 6.464.094 1.563.069 2.407.331 2.969.55.694.256 1.325.662 1.838 1.194.531.519.938 1.144 1.194 1.838.219.563.481 1.413.55 2.969.075 1.688.094 2.194.094 6.464s-.019 4.77-.094 6.458z"/>
      <path d="M16.059 7.783c-4.538 0-8.22 3.682-8.22 8.22s3.682 8.22 8.22 8.22c4.539 0 8.22-3.682 8.22-8.22s-3.682-8.22-8.22-8.22zm0 13.552c-2.944 0-5.332-2.388-5.332-5.332s2.388-5.332 5.332-5.332 5.332 2.388 5.332 5.332-2.388 5.332-5.332 5.332zM26.524 7.458c0 1.06-.859 1.919-1.919 1.919s-1.919-.859-1.919-1.919.859-1.919 1.919-1.919 1.919.859 1.919 1.919z"/>
    </symbol>
    <symbol id="icon-twitter-wg" viewBox="0 0 32 32">
      <path d="M32 6.078c-1.19.522-2.458.868-3.78 1.036 1.36-.812 2.398-2.088 2.886-3.626-1.268.756-2.668 1.29-4.16 1.588C25.742 3.794 24.026 3 22.154 3c-3.632 0-6.556 2.948-6.556 6.562 0 .52.044 1.02.152 1.496-5.454-.266-10.28-2.88-13.522-6.862-.566.982-.898 2.106-.898 3.316 0 2.272 1.17 4.286 2.914 5.452-1.054-.02-2.088-.326-2.964-.808v.072c0 3.188 2.274 5.836 5.256 6.446-.534.146-1.116.216-1.72.216-.42 0-.844-.024-1.242-.112.85 2.598 3.262 4.508 6.13 4.57-2.232 1.746-5.066 2.798-8.134 2.798-.538 0-1.054-.024-1.57-.09C2.906 27.93 6.35 29 10.064 29c12.072 0 18.672-10 18.672-18.668 0-.29-.01-.57-.024-.848C30.014 8.56 31.108 7.406 32 6.078z"/>
    </symbol>
    <symbol id="icon-linkedin-wg" viewBox="0 0 32 32">
      <path d="M31.992 32v-.001H32V20.263c0-5.741-1.236-10.164-7.948-10.164-3.227 0-5.392 1.771-6.276 3.449h-.093v-2.913h-6.364v21.364h6.627V21.42c0-2.785.528-5.479 3.977-5.479 3.399 0 3.449 3.179 3.449 5.657v10.401h6.62zM.528 10.636h6.635V32H.528V10.636zM3.843 0C1.722 0 0 1.721 0 3.843s1.721 3.879 3.843 3.879c2.121 0 3.843-1.757 3.843-3.879C7.685 1.722 5.963 0 3.843 0z"/>
    </symbol>
    <symbol id="icon-facebook-wg" viewBox="0 0 32 32">
      <path d="M21.329 5.313h2.921V.225C23.746.156 22.013 0 19.994 0c-4.212 0-7.097 2.649-7.097 7.519V12H8.249v5.688h4.648V32h5.699V17.689h4.46l.708-5.688h-5.169V8.082c.001-1.644.444-2.769 2.735-2.769z"/>
    </symbol>
    <symbol id="icon-client-1" viewBox="0 0 32 32">
      <path d="m6.128 0 4.771 4.517-8.856-.005v21.915h23.149v-8.379l4.766 4.512V.001H6.128zm18.854 17.517L11.454 4.71h13.528v12.807zm-4.2 5.704H5.706V8.482h1.066v13.741h14.01v.998zM9.266 29.344l-.557 1.147-.557-1.147h-.467l.813 1.529v.891h.422v-.891l.811-1.529h-.465zm.699 2.42.196-.563h.938l.198.563h.439l-.916-2.42h-.377l-.914 2.42h.437zm.665-1.906.351 1.004h-.701l.351-1.004zm2.218.946a.5493.5493 0 0 0-.091.307c0 .204.072.37.214.497.144.126.336.189.575.189s.445-.065.618-.194l.136.161h.469l-.356-.421c.14-.191.209-.435.209-.733h-.351c0 .163-.034.311-.101.444l-.467-.552.165-.12c.116-.084.2-.168.251-.253a.5318.5318 0 0 0 .076-.279c0-.153-.056-.281-.17-.384-.112-.104-.256-.156-.432-.156-.195 0-.35.055-.465.166-.115.11-.173.259-.173.449 0 .078.018.158.055.241.038.083.104.184.198.303-.18.129-.3.24-.361.334zm1.092.535c-.119.091-.246.136-.382.136-.121 0-.217-.035-.289-.105s-.108-.161-.108-.273c0-.13.067-.245.2-.346l.052-.037.529.623zm-.434-1.072c-.114-.141-.171-.258-.171-.351 0-.081.023-.148.07-.201s.109-.08.188-.08c.073 0 .133.023.181.068.048.044.072.098.072.161 0 .095-.034.173-.103.234l-.052.042-.184.126zm3.939 1.314c.166-.145.262-.347.286-.605h-.419c-.022.173-.075.296-.158.371s-.207.111-.372.111c-.181 0-.318-.069-.412-.206-.093-.137-.14-.337-.14-.598v-.214c.002-.258.052-.454.15-.587.099-.134.239-.201.422-.201.157 0 .276.039.357.116.082.076.133.202.153.376h.419c-.027-.265-.121-.47-.284-.615s-.378-.218-.645-.218c-.198 0-.373.047-.525.141-.151.094-.267.228-.347.402s-.121.375-.121.603v.226c.003.223.045.418.125.587s.193.299.339.391c.147.091.317.136.51.136.276 0 .497-.072.663-.216zm2.472-.339c.082-.18.123-.388.123-.625v-.135c-.001-.236-.043-.443-.126-.62-.083-.178-.201-.315-.354-.409-.152-.095-.326-.143-.524-.143s-.372.048-.525.145c-.152.095-.27.233-.354.414-.083.181-.125.389-.125.625v.136c.001.232.043.436.126.613.084.177.203.314.356.411.154.095.329.143.525.143.198 0 .373-.048.525-.143.153-.096.27-.234.352-.412zm-.45-1.368c.102.143.153.349.153.617v.126c0 .273-.05.48-.151.622-.1.142-.243.213-.429.213-.184 0-.328-.073-.432-.218-.103-.145-.155-.351-.155-.617v-.14c.002-.26.054-.462.156-.603.103-.143.245-.214.427-.214.186 0 .33.072.43.214z"/>
    </symbol>
    <symbol id="icon-client-2" viewBox="0 0 32 32">
      <path d="M14.224 1.806h-.084a9.9847 9.9847 0 0 0-.388-.014h-.28c-.244 0-.494.006-.741.019a.523.523 0 0 0-.056 0c-2.243.127-4.44.688-6.471 1.651l-.266.128v13.625l.623-.211c.546-.188 1.129-.357 1.731-.513 1.629-.418 3.301-.64 4.982-.662v1.79c-.223.002-.439.008-.655.019h-.051c-1.294.071-2.577.268-3.833.588-1.59.398-3.124.996-4.566 1.779V2.53c1.497-.873 3.11-1.529 4.79-1.948C10.434.201 11.951.006 13.474 0h.263c.314.008.621.022.909.044.759.053 1.511.173 2.249.358v1.762c-.717-.167-1.445-.277-2.179-.329-.015-.001-.03-.003-.045-.004-.152-.013-.304-.026-.446-.026zm3.101 1.801c.391.03.796.044 1.205.044 1.601-.006 3.195-.21 4.747-.609 1.589-.4 3.123-.998 4.564-1.781v17.163a18.3134 18.3134 0 0 1-4.792 1.948c-1.475.379-2.992.574-4.515.581-1.154.009-2.304-.126-3.425-.404V3.274c.265.061.537.117.814.164.455.077.934.133 1.401.167zm8.735.133-.623.21c-.573.192-1.15.365-1.731.518-1.691.434-3.428.657-5.173.663-.406 0-.78-.011-1.141-.034l-.497-.033v14.017l.427.038c.395.034.803.052 1.214.052a16.573 16.573 0 0 0 4.074-.527c1.096-.275 2.162-.658 3.184-1.144l.266-.128V3.742zM5.377 25.977c-.09-.093-.197-.166-.317-.214s-.247-.071-.376-.066c-.137-.002-.273.024-.4.075-.117.046-.222.116-.311.205s-.156.196-.201.313c-.049.123-.073.254-.072.387v2.335c-.006.165.026.328.092.479.055.12.135.226.234.313.093.079.203.135.321.166.114.032.231.048.349.049a.891.891 0 0 0 .377-.081.972.972 0 0 0 .311-.216c.087-.091.156-.197.204-.313a.951.951 0 0 0 .075-.372v-.261h-.61v.208c.002.071-.01.142-.036.208a.359.359 0 0 1-.089.131.3653.3653 0 0 1-.128.067.4246.4246 0 0 1-.128.022c-.054.006-.11-.002-.16-.024s-.094-.057-.126-.101a.5482.5482 0 0 1-.081-.313v-2.177a.7375.7375 0 0 1 .075-.349c.032-.049.077-.089.129-.114s.112-.034.17-.027c.053-.002.105.009.152.032s.089.057.12.099c.068.09.104.2.101.313v.202h.604v-.238c.001-.14-.024-.278-.075-.408a.9618.9618 0 0 0-.204-.329zm3.625-.027c-.195-.164-.44-.255-.694-.257-.124 0-.248.023-.364.066a.9612.9612 0 0 0-.559.518c-.061.143-.092.297-.089.452v2.239c-.004.158.026.314.089.459.055.12.136.227.237.313a.939.939 0 0 0 .322.197c.117.043.24.065.364.066s.248-.023.364-.066c.121-.044.233-.111.33-.197a.9483.9483 0 0 0 .23-.313c.063-.145.093-.301.089-.459v-2.239c.003-.155-.027-.31-.089-.452a1.015 1.015 0 0 0-.23-.327zm-.284 3.019c.005.06-.003.12-.024.176s-.054.107-.097.148a.4453.4453 0 0 1-.574 0c-.043-.041-.076-.092-.097-.148s-.029-.116-.024-.176V26.73c-.005-.06.003-.12.024-.176s.054-.107.097-.148a.4453.4453 0 0 1 .574 0c.043.041.076.092.097.148s.029.116.024.176v2.239zm5.046 1V25.73h-.587l-.771 2.244h-.011l-.777-2.244h-.581v4.239h.606V27.39h.011l.593 1.823h.302l.598-1.823h.011v2.579h.606zm3.441-3.942a.8406.8406 0 0 0-.343-.232c-.142-.046-.29-.068-.439-.066h-.9v4.239h.604v-1.656h.311c.189.009.376-.031.545-.116a.8824.8824 0 0 0 .332-.324c.07-.113.117-.238.139-.369.024-.16.035-.321.033-.482a2.421 2.421 0 0 0-.059-.606.8977.8977 0 0 0-.223-.39zm-.311 1.292a.5472.5472 0 0 1-.056.221.346.346 0 0 1-.156.149.619.619 0 0 1-.285.053h-.276v-1.441h.311c.094-.005.187.014.272.053.062.036.112.091.142.157.033.074.051.155.053.236v.282c0 .099.006.2 0 .291h-.006zm3.172-1.589h-.495l-.934 4.239h.604l.177-.911h.823l.177.911h.604l-.957-4.239zm-.557 2.751.297-1.537h.011l.296 1.537h-.604zm4.46-.197h-.011l-.912-2.554h-.581v4.239h.604V27.42h.012l.923 2.549h.568V25.73h-.604v2.554zm3.691-2.554-.486 1.685h-.012l-.486-1.685h-.64l.83 2.447v1.792h.604v-1.792l.83-2.447h-.64zM3.692 31.166h.291v.817h.198v-.817h.29v-.167h-.778v.167zm2.448-.168-.381.984h.21l.081-.224h.392l.084.224h.215l-.391-.984h-.21zm-.032.595.134-.365.134.365h-.268zm2.451.027h.227v.127a.381.381 0 0 1-.233.083c-.04.002-.079-.005-.116-.021s-.068-.041-.093-.072a.4112.4112 0 0 1-.073-.257c0-.219.095-.329.283-.329.05-.005.099.008.14.037s.07.071.082.12l.195-.038c-.042-.192-.181-.289-.417-.289a.4945.4945 0 0 0-.344.127c-.05.049-.088.108-.112.174s-.034.135-.029.205c-.006.135.039.267.126.369a.4774.4774 0 0 0 .374.144c.154.004.304-.052.417-.157v-.388h-.427v.166zm2.47-.622h-.199v.984h.69v-.167h-.49v-.817zm2.089 0h-.199v.984h.199v-.984zm2.043.658-.403-.657h-.193v.984h.185v-.643l.395.643h.198v-.984h-.182v.657zm1.846-.107h.49v-.167h-.49v-.216h.528v-.167h-.727v.984h.747v-.167h-.548v-.266zm4.477-.162h-.388v-.388h-.198v.984h.198v-.43h.388v.43h.198v-.984h-.198v.388zm1.858.162h.492v-.167h-.492v-.216h.529v-.167h-.727v.984h.746v-.167h-.548v-.266zm2.518 0c.171-.027.258-.117.258-.274.005-.042-.001-.084-.018-.123s-.044-.072-.078-.096a.5532.5532 0 0 0-.288-.058h-.417v.984h.198v-.412h.039c.042-.003.084.005.123.022.029.018.053.043.07.072l.215.313h.237l-.12-.192a.6851.6851 0 0 0-.218-.236zm-.199-.136h-.146v-.247h.156c.068-.005.136.002.201.023.014.013.026.029.033.046s.011.037.01.056a.1283.1283 0 0 1-.052.098.5466.5466 0 0 1-.201.023zm2.099.136h.49v-.167h-.49v-.216h.529v-.167h-.729v.984h.747v-.167h-.548v-.266z"/>
    </symbol>
    <symbol id="icon-client-3" viewBox="0 0 32 32">
      <path d="M5.267 30.294c.011 0 .022.003.033.007s.02.01.027.017l.155.148c-.12.12-.269.216-.436.281a1.701 1.701 0 0 1-.619.101 1.66 1.66 0 0 1-.582-.094c-.166-.06-.316-.151-.438-.266a1.1887 1.1887 0 0 1-.283-.411c-.068-.17-.101-.348-.099-.527-.003-.181.033-.36.107-.529.068-.153.17-.293.301-.411.132-.116.291-.207.465-.268.191-.064.394-.096.599-.094.19-.004.379.025.556.086.154.058.295.138.417.238l-.13.158a.1323.1323 0 0 1-.033.029.093.093 0 0 1-.052.012.1186.1186 0 0 1-.056-.017l-.07-.042-.097-.054c-.042-.02-.085-.037-.13-.052a1.3633 1.3633 0 0 0-.176-.042 1.3664 1.3664 0 0 0-.231-.017c-.147-.002-.294.022-.43.071a.9995.9995 0 0 0-.337.199c-.097.092-.171.2-.219.317-.055.134-.082.276-.079.418-.002.145.025.288.079.425.047.116.12.223.215.315.089.086.199.152.322.195.127.046.262.068.399.067.079.001.158-.003.237-.013.128-.014.25-.052.359-.113.054-.031.106-.066.153-.104.02-.017.046-.026.074-.027zm4.478-.745c.002.179-.033.356-.105.524-.063.152-.163.291-.292.407s-.286.207-.458.267c-.38.126-.799.126-1.179 0-.172-.061-.327-.152-.456-.268-.129-.118-.23-.258-.295-.411-.14-.339-.14-.71 0-1.05.066-.153.166-.293.295-.413.13-.112.285-.2.456-.258.379-.128.8-.128 1.179 0 .172.061.328.152.458.268.128.117.227.255.293.406.072.169.107.347.105.527zm-.407 0c.003-.143-.022-.285-.074-.421a.8633.8633 0 0 0-.207-.315c-.091-.087-.203-.154-.328-.199a1.365 1.365 0 0 0-.857 0 .912.912 0 0 0-.328.199.8362.8362 0 0 0-.209.315c-.099.274-.099.568 0 .842.044.117.115.224.209.315.091.086.203.153.328.197.276.09.581.09.857 0 .125-.044.237-.111.328-.197.093-.092.164-.199.207-.315.052-.136.077-.278.074-.421zm3.463.442.041.094c.015-.034.029-.064.045-.094.015-.032.032-.063.05-.093l.991-1.565c.019-.027.037-.044.056-.049.026-.007.054-.01.081-.008h.293v2.545h-.347v-1.95a.646.646 0 0 1 0-.088l-.997 1.587c-.013.024-.033.044-.058.058s-.055.021-.085.021h-.056c-.03 0-.06-.007-.085-.021s-.046-.034-.058-.058l-1.026-1.597v2.043h-.335v-2.54h.293c.028-.001.055.001.081.008.024.01.043.028.054.049l1.012 1.567c.02.029.037.059.05.091zm3.728-.127v.953h-.388v-2.542h.865c.163-.003.326.016.483.056.125.031.242.085.341.158.086.069.153.154.194.249a.766.766 0 0 1 .066.325.7265.7265 0 0 1-.072.325.698.698 0 0 1-.209.254.981.981 0 0 1-.343.168 1.631 1.631 0 0 1-.467.059l-.469-.007zm0-.272h.469c.102.001.203-.012.3-.039.08-.023.154-.061.217-.11a.463.463 0 0 0 .132-.168.4867.4867 0 0 0 .047-.214c.004-.071-.009-.141-.039-.207s-.076-.125-.136-.174c-.148-.1-.334-.149-.522-.136h-.469v1.048zm5.212 1.229h-.306a.1388.1388 0 0 1-.085-.024.1567.1567 0 0 1-.05-.059l-.264-.615h-1.324l-.273.615a.1403.1403 0 0 1-.049.057.1476.1476 0 0 1-.087.025h-.306l1.163-2.546h.403l1.179 2.546zm-1.92-.945h1.093l-.461-1.036a1.755 1.755 0 0 1-.087-.239l-.045.133c-.014.04-.029.078-.043.108l-.458 1.034zm3.595-1.588a.174.174 0 0 1 .058.045l1.697 1.919v-1.976h.347v2.545h-.194a.1742.1742 0 0 1-.079-.015.2075.2075 0 0 1-.062-.047l-1.695-1.917a.646.646 0 0 1 0 .088v1.891h-.347v-2.545h.206c.024-.001.048.003.07.012zm4.959 1.521v1.011h-.388v-1.011l-1.072-1.533h.347c.03-.002.059.006.083.022.021.016.039.036.052.057l.671.989c.027.042.05.081.07.118s.035.072.049.108l.05-.11c.019-.04.041-.079.066-.116l.661-.996c.014-.02.031-.038.05-.054a.1277.1277 0 0 1 .083-.025h.351l-1.074 1.54zm-15.766-5.805c.169.019.339.034.512.047 2.616-1.017 4.829-2.681 6.363-4.785s2.319-4.553 2.259-7.043L18.86 9.718c.586 2.651.312 5.39-.792 7.913s-2.994 4.729-5.459 6.372z"/>
      <path d="m11.579 23.888.078.013c2.634-1.637 4.642-3.923 5.765-6.562s1.308-5.51.533-8.242l-4.106-3.568c1.661 2.933 2.33 6.215 1.928 9.464s-1.857 6.334-4.196 8.893zm13.927-8.723c-.698 2.735-2.392 5.202-4.832 7.035-.712.538-1.481 1.017-2.296 1.432 1.986-.507 3.812-1.404 5.337-2.621s2.707-2.723 3.456-4.4l-1.665-1.445z"/>
      <path d="m24.853 14.763-2.371-2.06c-.045 2.349-.814 4.644-2.226 6.648s-3.416 3.642-5.803 4.745h.012c.532 0 1.064-.028 1.592-.083 2.231-.791 4.202-2.05 5.737-3.664s2.586-3.533 3.06-5.586zM11.923 4.026 9.094 1.565c-2.529.849-4.704 2.342-6.24 4.282S.492 10.086.484 12.442c.009 2.603 1.018 5.128 2.865 7.177s4.429 3.504 7.335 4.135c2.594-2.746 4.113-6.14 4.336-9.688s-.862-7.065-3.097-10.04zm19.465 10.358c-.01-3.088-1.427-6.047-3.94-8.23s-5.919-3.414-9.473-3.423c-1.642-.001-3.271.262-4.803.777l17.32 15.048c.593-1.33.897-2.744.896-4.171z"/>
    </symbol>
    <symbol id="icon-client-4" viewBox="0 0 32 32">
      <path d="M4.949 13.027h-.001c-.903 0-1.635.65-1.635 1.453v.001c0 .802.732 1.453 1.635 1.453h.001c.903 0 1.635-.65 1.635-1.453v-.001c0-.802-.732-1.453-1.635-1.453zm12.066-.464c-.003-1.114-.502-2.182-1.388-2.97s-2.088-1.232-3.342-1.234c-1.254.002-2.457.446-3.344 1.234s-1.386 1.856-1.389 2.971v6.145s9.462-.937 9.463-6.144v-.001zM0 20.725c.002.775.35 1.518.967 2.067s1.453.857 2.325.86c.872-.002 1.708-.311 2.325-.859s.964-1.291.967-2.066v-4.276S0 17.103 0 20.726zm3.292.766c-.171 0-.337-.045-.479-.129s-.252-.204-.317-.344c-.065-.14-.082-.294-.049-.443s.115-.285.236-.392.274-.18.441-.21c.167-.03.341-.014.498.044s.292.156.387.282c.095.126.145.274.145.426 0 .101-.022.201-.065.294s-.107.178-.187.25c-.08.071-.175.128-.28.167s-.217.059-.331.059v-.003zm6.653-.422H9.31v.656h-.331v-1.606h1.046v.268H9.31v.415h.635v.267zm1.591-.111c0 .158-.028.297-.084.416s-.136.211-.24.276c-.104.065-.223.097-.357.097-.133 0-.252-.032-.356-.096s-.185-.155-.243-.273c-.057-.119-.086-.256-.087-.41v-.079c0-.158.028-.297.085-.417s.138-.213.242-.277c.104-.065.224-.097.357-.097s.253.032.356.097c.104.064.185.156.242.277s.086.258.086.416v.072zm-.335-.072c0-.168-.03-.296-.09-.384s-.146-.131-.258-.131c-.111 0-.197.043-.257.13s-.091.212-.092.379v.078c0 .164.03.291.09.382s.147.136.26.136c.111 0 .196-.043.256-.13s.09-.215.09-.382v-.078zm1.408.418c0-.063-.022-.11-.066-.143s-.124-.069-.238-.106c-.115-.038-.206-.074-.272-.11-.182-.099-.274-.231-.274-.398 0-.087.024-.164.073-.232s.12-.122.211-.16c.092-.038.195-.057.309-.057s.217.021.307.063c.09.041.159.1.208.175s.075.162.075.258h-.331c0-.074-.023-.131-.069-.171s-.111-.062-.195-.062c-.081 0-.144.017-.189.052s-.067.079-.067.135c0 .052.026.096.078.131s.131.068.233.099c.188.057.325.127.411.211s.129.188.129.313c0 .139-.053.248-.158.328s-.247.118-.425.118c-.124 0-.236-.022-.338-.067s-.179-.108-.233-.186c-.053-.079-.079-.17-.079-.274h.332c0 .177.106.266.318.266.079 0 .14-.016.184-.047s.066-.077.066-.135zm1.766-.917h-.492v1.338h-.331v-1.338h-.485v-.268h1.308v.268zm1.156.642h-.635v.43h.746v.266h-1.076v-1.606h1.074v.268h-.743v.383h.635v.259zm.899.108h-.264v.588h-.331v-1.606h.597c.19 0 .336.042.439.127s.154.204.154.358c0 .11-.024.201-.072.275s-.119.131-.215.174l.347.656v.015h-.355l-.301-.588zm-.264-.268h.267c.083 0 .147-.021.193-.063s.068-.101.068-.175c0-.076-.022-.135-.065-.179s-.108-.065-.197-.065h-.266v.482zm2.005.29v.566h-.331v-1.606h.626c.121 0 .227.022.318.066s.163.107.212.189c.049.081.074.173.074.277 0 .157-.054.282-.162.373s-.256.136-.447.136h-.29zm0-.268h.296c.088 0 .154-.021.2-.062s.07-.1.07-.176c0-.079-.023-.142-.07-.191s-.11-.074-.192-.075h-.303v.504zm2.094.138h-.635v.43h.746v.266H19.3v-1.606h1.074v.268h-.743v.383h.635v.259zm1.535-.642h-.492v1.338h-.331v-1.338h-.485v-.268H21.8v.268zm1.156.642h-.635v.43h.746v.266h-1.076v-1.606h1.074v.268h-.743v.383h.635v.259zm.899.108h-.264v.588h-.331v-1.606h.597c.19 0 .336.042.439.127s.154.204.154.358c0 .11-.024.201-.072.275s-.119.131-.215.174l.347.656v.015h-.355l-.301-.588zm-.264-.268h.267c.083 0 .147-.021.193-.063s.068-.101.068-.175c0-.076-.022-.135-.065-.179s-.108-.065-.197-.065h-.266v.482zm1.945.435c0-.063-.022-.11-.066-.143s-.124-.069-.238-.106c-.115-.038-.206-.074-.272-.11-.182-.099-.274-.231-.274-.398 0-.087.024-.164.073-.232s.119-.122.211-.16c.092-.038.195-.057.309-.057s.217.021.307.063c.09.041.159.1.208.175s.075.162.075.258h-.331c0-.074-.023-.131-.069-.171s-.111-.062-.195-.062c-.081 0-.144.017-.189.052s-.067.079-.067.135c0 .052.026.096.078.131s.131.068.233.099c.188.057.325.127.411.211s.129.188.129.313c0 .139-.053.248-.158.328s-.247.118-.425.118c-.124 0-.236-.022-.337-.067s-.179-.108-.233-.186c-.053-.079-.079-.17-.079-.274h.332c0 .177.106.266.318.266.079 0 .14-.016.184-.047s.066-.077.066-.135z"/>
    </symbol>
    <symbol id="icon-client-5" viewBox="0 0 32 32">
      <path d="M2.416 23.738c.124.14.19.316.186.496.006.118-.016.235-.066.344s-.126.205-.222.283c-.24.166-.538.248-.839.229H0v-3.145h1.445c.285-.017.568.056.8.209.093.072.167.162.216.264s.071.213.064.324c.008.173-.051.344-.168.481-.112.125-.267.212-.44.246.196.033.372.128.498.269zm-1.73-.474h.617c.14.009.28-.028.393-.104.046-.038.082-.086.105-.139s.032-.111.027-.168c.004-.057-.005-.114-.028-.167s-.058-.101-.103-.14a.6352.6352 0 0 0-.404-.106H.686v.825zm1.071 1.206c.05-.039.089-.089.114-.144s.036-.115.032-.175c.004-.061-.008-.121-.034-.177s-.065-.106-.116-.145c-.121-.082-.269-.122-.419-.114H.686v.865h.656c.148.008.294-.031.414-.109zm3.612.62-.804-1.229h-.302v1.229h-.691v-3.145h1.309c.33-.021.656.075.911.267.183.171.293.396.311.634s-.058.475-.214.667c-.161.169-.382.282-.624.32l.856 1.257h-.752zm-1.105-1.657h.565c.393 0 .589-.159.589-.476.004-.065-.007-.13-.032-.191s-.063-.116-.113-.163c-.124-.094-.284-.14-.445-.128h-.572l.007.957zm4.884 1.024H7.77l-.243.633h-.725l1.265-3.11h.784l1.26 3.11h-.725l-.238-.633zm-.185-.476-.503-1.327-.503 1.327h1.007zm4.915 1.109h-.686l-1.539-2.139v2.139h-.685v-3.145h.685l1.539 2.151v-2.151h.686v3.145zm3.916-.752c-.142.237-.358.431-.621.555-.299.138-.63.206-.965.198h-1.222v-3.145h1.222c.334-.008.665.058.965.194.263.121.479.312.621.548.141.256.215.538.215.825s-.074.569-.215.825zm-.785-.076c.196-.209.304-.475.304-.751s-.108-.542-.304-.75c-.237-.189-.545-.285-.859-.267h-.476v2.036h.476c.314.018.622-.078.859-.267zM9.578 4.453s8.858 3.062 8.67 7.493v7.494s-8.851-3.063-8.666-7.494l-.003-7.493zm16.561 13.232c1.673-1.054 3.608-1.707 5.628-1.899V13.44c-2.327.821-4.302 2.311-5.628 4.245z"/>
      <path d="M25.134 18.392c1.369-2.524 3.743-4.472 6.633-5.443v-6.76S19.152 10.551 19.419 16.86v10.67s.562-.195 1.446-.561c0-.341 0-.685.04-1.031.261-2.929 1.782-5.644 4.228-7.546z"/>
      <path d="M23.934 22.356c.066-.74.214-1.472.441-2.185-1.523 1.643-2.446 3.682-2.638 5.83-.018.203-.029.406-.034.615.716-.315 1.55-.708 2.426-1.171-.224-1.016-.29-2.056-.196-3.09zm.502.038c-.084.935-.032 1.876.156 2.798 3.446-1.888 7.319-4.806 7.17-8.332v-.307c-2.462.252-4.766 1.238-6.557 2.805-.419.971-.678 1.994-.768 3.036z"/>
    </symbol>
    <symbol id="icon-client-6" viewBox="0 0 32 32">
      <path d="M16.145 15.628c-.151-.201-.223-.438-.206-.677v-.982c0-.301.068-.53.205-.686s.371-.234.703-.234c.312 0 .534.067.665.2.143.17.213.378.197.587v.231h-.559v-.234c.002-.076-.003-.153-.016-.229a.2193.2193 0 0 0-.08-.136.3222.3222 0 0 0-.202-.053.342.342 0 0 0-.213.056.2644.2644 0 0 0-.093.15c-.016.08-.023.161-.022.243v1.191c-.009.115.016.23.072.335.028.035.066.063.111.081s.095.024.144.019c.072.005.143-.014.198-.054a.235.235 0 0 0 .083-.145c.013-.079.019-.159.017-.239v-.242h.559v.221c.016.218-.052.435-.193.617-.128.146-.347.219-.668.219s-.564-.078-.702-.24zm2.325.01c-.141-.153-.212-.375-.212-.67v-1.032c0-.292.071-.512.212-.662s.377-.224.708-.224c.328 0 .563.075.704.224s.213.37.213.662v1.032c0 .292-.072.515-.215.669s-.377.231-.702.231c-.325 0-.566-.078-.708-.23zm.968-.247c.051-.096.074-.2.067-.306v-1.264a.566.566 0 0 0-.066-.3c-.028-.036-.068-.065-.114-.082s-.097-.024-.147-.018c-.05-.006-.101 0-.148.018s-.086.046-.115.082a.5449.5449 0 0 0-.067.3v1.27c-.007.105.016.21.067.306.033.032.073.058.118.076s.094.027.144.027c.049 0 .098-.009.144-.027s.085-.043.118-.076v-.006zm1.329-2.311h.601l.452 1.905.463-1.905h.585l.059 2.749h-.433l-.046-1.911-.446 1.911h-.347l-.463-1.918-.043 1.918h-.437l.054-2.749zm2.835 0h.937c.54 0 .81.26.81.781 0 .499-.284.747-.852.747h-.319v1.222H23.6l.003-2.749zm.8 1.175c.057.006.115.002.17-.013s.105-.04.148-.074c.066-.093.096-.202.083-.31a.8462.8462 0 0 0-.028-.25c-.008-.027-.023-.053-.043-.075s-.045-.041-.073-.055a.6082.6082 0 0 0-.258-.044h-.224v.822h.224zm1.78-1.175h.621l.637 2.749h-.539l-.126-.634h-.554l-.13.634h-.547l.637-2.749zm.531 1.797-.216-1.154-.216 1.154h.433zm1.242-1.797h.405l.775 1.568V13.08h.48v2.749h-.385l-.779-1.637v1.637h-.496l.001-2.749zm2.784 1.702-.644-1.697h.542l.393 1.09.369-1.09h.531l-.636 1.697v1.048h-.555v-1.048zm-13.701 2.25v.144h-.472v1.117h-.198v-1.117h-.474v-.144h1.144zm1.479 1.261h-.153a.0656.0656 0 0 1-.043-.012.0586.0586 0 0 1-.025-.029l-.136-.3h-.655l-.136.3a.081.081 0 0 1-.021.034.07.07 0 0 1-.043.012h-.153l.578-1.261h.201l.585 1.256zm-.958-.468h.546l-.231-.513a.9926.9926 0 0 1-.043-.119c-.008.024-.015.047-.022.067l-.021.053-.229.512zm1.955.344c.036.002.073.002.109 0a.7498.7498 0 0 0 .093-.015.7836.7836 0 0 0 .083-.023c.025-.009.051-.02.077-.031v-.284h-.231c-.006 0-.011 0-.017-.002s-.01-.004-.014-.008c-.004-.003-.007-.006-.009-.01s-.003-.008-.003-.013v-.097h.449v.483c-.037.023-.075.043-.116.06s-.084.032-.128.043a1 1 0 0 1-.145.026c-.056.005-.112.008-.169.008a.8619.8619 0 0 1-.291-.047.703.703 0 0 1-.231-.132c-.064-.058-.115-.125-.149-.2a.6269.6269 0 0 1-.053-.262.6545.6545 0 0 1 .052-.264c.033-.075.084-.143.149-.2s.145-.101.231-.131a.9794.9794 0 0 1 .31-.047c.054 0 .108.004.161.011.047.007.093.017.138.032.04.013.079.03.116.05.035.02.069.042.101.066l-.056.078c-.004.007-.011.013-.019.017s-.017.007-.026.007a.0749.0749 0 0 1-.036-.01.8219.8219 0 0 1-.057-.03.582.582 0 0 0-.077-.034.7506.7506 0 0 0-.106-.028.901.901 0 0 0-.147-.011.6715.6715 0 0 0-.223.035.484.484 0 0 0-.17.1.438.438 0 0 0-.108.157.5849.5849 0 0 0 0 .42c.025.059.065.113.116.159.047.043.105.077.169.1.074.022.151.03.229.025zm1.843-.02h.631v.144h-.825v-1.261h.198l-.005 1.117zm1.288.144h-.198v-1.261h.198v1.261zm.736-1.255c.012.006.022.014.03.023l.845.951a.3379.3379 0 0 1 0-.045v-.94h.172v1.266h-.099a.0908.0908 0 0 1-.043-.007.0923.0923 0 0 1-.031-.024l-.844-.95v.981h-.165v-1.261h.103c.011 0 .022.002.032.006zm2.504-.006v.139h-.701v.416h.568v.134h-.568v.43h.701v.139h-.904v-1.258h.904zM5.161 9.244l8.781 2.153v7.543l-8.781-2.152V9.244zm-.563-.643v8.554l9.907 2.429v-8.553l-9.907-2.43z"/>
      <path d="M9.908 23.555 0 21.124v-8.553l9.908 2.43v8.554z"/>
      <path d="m4.762 9.148 8.667 2.126-3.686 3.183-8.668-2.127 3.687-3.182zm-.164-.547L0 12.571l9.908 2.43 4.597-3.97-9.907-2.43zm5.867 14.473 4.04-3.488-4.04-.991v4.48z"/>
    </symbol>
    <symbol id="icon-foot-instagram" viewBox="0 0 32 32">
      <path d="M31.969 9.408c-.075-1.7-.35-2.869-.744-3.882-.406-1.075-1.032-2.038-1.851-2.838A7.8671 7.8671 0 0 0 26.542.844C25.523.45 24.36.175 22.66.1 20.947.019 20.403 0 16.059 0s-4.888.019-6.595.094c-1.7.075-2.869.35-3.882.744-1.075.406-2.038 1.031-2.838 1.85C1.931 3.488 1.3 4.457.9 5.52.506 6.539.231 7.702.156 9.402c-.081 1.713-.1 2.257-.1 6.601s.019 4.888.094 6.595c.075 1.7.35 2.869.744 3.882.406 1.075 1.038 2.038 1.85 2.838.8.813 1.769 1.444 2.832 1.844 1.019.394 2.182.669 3.882.744 1.706.075 2.25.094 6.595.094s4.888-.019 6.595-.094c1.7-.075 2.869-.35 3.882-.744a8.1843 8.1843 0 0 0 4.682-4.682c.394-1.019.669-2.182.744-3.882.075-1.707.094-2.251.094-6.595s-.006-4.888-.081-6.595zm-2.882 13.065c-.069 1.563-.331 2.407-.55 2.969a5.3097 5.3097 0 0 1-3.038 3.038c-.563.219-1.413.481-2.969.55-1.688.075-2.194.094-6.464.094s-4.782-.019-6.464-.094c-1.563-.069-2.407-.331-2.969-.55-.694-.256-1.325-.663-1.838-1.194-.531-.519-.938-1.144-1.194-1.838-.219-.563-.481-1.413-.55-2.969-.075-1.688-.094-2.194-.094-6.464s.019-4.782.094-6.464c.069-1.563.331-2.407.55-2.969.256-.694.663-1.325 1.2-1.838.519-.531 1.144-.938 1.838-1.194.563-.219 1.413-.481 2.969-.55 1.688-.075 2.194-.094 6.464-.094 4.276 0 4.782.019 6.464.094 1.563.069 2.407.331 2.969.55.694.256 1.325.662 1.838 1.194.531.519.938 1.144 1.194 1.838.219.563.481 1.413.55 2.969.075 1.688.094 2.194.094 6.464s-.019 4.77-.094 6.458z"/>
      <path d="M16.059 7.783c-4.538 0-8.22 3.682-8.22 8.22s3.682 8.22 8.22 8.22c4.539 0 8.22-3.682 8.22-8.22s-3.682-8.22-8.22-8.22zm0 13.552c-2.944 0-5.332-2.388-5.332-5.332s2.388-5.332 5.332-5.332 5.332 2.388 5.332 5.332-2.388 5.332-5.332 5.332zM26.524 7.458c0 1.06-.859 1.919-1.919 1.919s-1.919-.859-1.919-1.919.859-1.919 1.919-1.919 1.919.859 1.919 1.919z"/>
    </symbol>
    <symbol id="icon-foot-twitter" viewBox="0 0 32 32">
      <path d="M32 6.078c-1.19.522-2.458.868-3.78 1.036 1.36-.812 2.398-2.088 2.886-3.626-1.268.756-2.668 1.29-4.16 1.588C25.742 3.794 24.026 3 22.154 3c-3.632 0-6.556 2.948-6.556 6.562 0 .52.044 1.02.152 1.496-5.454-.266-10.28-2.88-13.522-6.862-.566.982-.898 2.106-.898 3.316 0 2.272 1.17 4.286 2.914 5.452-1.054-.02-2.088-.326-2.964-.808v.072c0 3.188 2.274 5.836 5.256 6.446-.534.146-1.116.216-1.72.216-.42 0-.844-.024-1.242-.112.85 2.598 3.262 4.508 6.13 4.57-2.232 1.746-5.066 2.798-8.134 2.798-.538 0-1.054-.024-1.57-.09C2.906 27.93 6.35 29 10.064 29c12.072 0 18.672-10 18.672-18.668 0-.29-.01-.57-.024-.848C30.014 8.56 31.108 7.406 32 6.078z"/>
    </symbol>
    <symbol id="icon-foot-facebook" viewBox="0 0 32 32">
      <path d="M21.329 5.313h2.921V.225C23.746.156 22.013 0 19.994 0c-4.212 0-7.097 2.649-7.097 7.519V12H8.249v5.688h4.648V32h5.699V17.689h4.46l.708-5.688h-5.169V8.082c.001-1.644.444-2.769 2.735-2.769z"/>
    </symbol>
    <symbol id="icon-foot-linkedin" viewBox="0 0 32 32">
      <path d="M31.992 32v-.001H32V20.263c0-5.741-1.236-10.164-7.948-10.164-3.227 0-5.392 1.771-6.276 3.449h-.093v-2.913h-6.364v21.364h6.627V21.42c0-2.785.528-5.479 3.977-5.479 3.399 0 3.449 3.179 3.449 5.657v10.401h6.62zM.528 10.636h6.635V32H.528V10.636zM3.843 0C1.722 0 0 1.721 0 3.843s1.721 3.879 3.843 3.879c2.121 0 3.843-1.757 3.843-3.879C7.685 1.722 5.963 0 3.843 0z"/>
    </symbol>
  </defs>
</svg>
